<?xml version="1.0" encoding="UTF-8" standalone="no"?>
<svg
   xmlns:dc="http://purl.org/dc/elements/1.1/"
   xmlns:cc="http://creativecommons.org/ns#"
   xmlns:rdf="http://www.w3.org/1999/02/22-rdf-syntax-ns#"
   xmlns:svg="http://www.w3.org/2000/svg"
   xmlns="http://www.w3.org/2000/svg"
   xmlns:sodipodi="http://sodipodi.sourceforge.net/DTD/sodipodi-0.dtd"
   xmlns:inkscape="http://www.inkscape.org/namespaces/inkscape"
   width="494px"
   height="455px"
   viewBox="0 0 494 455"
   version="1.1"
   id="svg2"
   inkscape:version="0.48.4 r9939"
   sodipodi:docname="logo.svg">
  <metadata
     id="metadata47">
    <rdf:RDF>
      <cc:Work
         rdf:about="">
        <dc:format>image/svg+xml</dc:format>
        <dc:type
           rdf:resource="http://purl.org/dc/dcmitype/StillImage" />
        <dc:title>logo</dc:title>
      </cc:Work>
    </rdf:RDF>
  </metadata>
  <sodipodi:namedview
     pagecolor="#ffffff"
     bordercolor="#666666"
     borderopacity="1"
     objecttolerance="10"
     gridtolerance="10"
     guidetolerance="10"
     inkscape:pageopacity="0"
     inkscape:pageshadow="2"
     inkscape:window-width="1280"
     inkscape:window-height="1000"
     id="namedview45"
     showgrid="false"
     inkscape:zoom="0.73352616"
     inkscape:cx="473.29161"
     inkscape:cy="120.68831"
     inkscape:window-x="1366"
     inkscape:window-y="24"
     inkscape:window-maximized="1"
     inkscape:current-layer="svg2" />
  <!-- Generator: Sketch 3.2.2 (9983) - http://www.bohemiancoding.com/sketch -->
  <title
     id="title4">logo</title>
  <desc
     id="desc6">Created with Sketch.</desc>
  <defs
     id="defs8">
    <path
       id="path-1"
       d="M0,1173.3333 L1999.99995,1173.3333 L1999.99995,0 L0,0 L0,1173.3333 L0,1173.3333 Z" />
    <clipPath
       id="clipPath3434"
       clipPathUnits="userSpaceOnUse">
      <path
         id="path3436"
         d="M 0,0 741,0 741,683 0,683 0,0 z" />
    </clipPath>
    <clipPath
       id="clipPath3430"
       clipPathUnits="userSpaceOnUse">
      <path
         id="path3432"
         clip-rule="evenodd"
         d="m 696.9606,419.8834 -190.638,0 81.928,252.146 c 4.216,12.974 22.57,12.974 26.784,0 l 81.926,-252.146 0,0 z" />
    </clipPath>
    <clipPath
       id="clipPath3426"
       clipPathUnits="userSpaceOnUse">
      <path
         id="path3428"
         d="M 0,0 741,0 741,683 0,683 0,0 z" />
    </clipPath>
    <clipPath
       id="clipPath3422"
       clipPathUnits="userSpaceOnUse">
      <path
         id="path3424"
         clip-rule="evenodd"
         d="m 696.9606,419.8838 0,0 41.338,-127.222 c 3.77,-11.604 -0.36,-24.316 -10.232,-31.486 L 370.2966,1.241837 696.9606,419.8838 l 0,0 z" />
    </clipPath>
    <clipPath
       id="clipPath3418"
       clipPathUnits="userSpaceOnUse">
      <path
         id="path3420"
         d="M 0,0 741,0 741,683 0,683 0,0 z" />
    </clipPath>
    <clipPath
       id="clipPath3414"
       clipPathUnits="userSpaceOnUse">
      <path
         id="path3416"
         clip-rule="evenodd"
         d="m 370.2968,1.241237 136.026,418.641963 190.638,0 -326.664,-418.641963 0,0 z" />
    </clipPath>
    <clipPath
       id="clipPath3410"
       clipPathUnits="userSpaceOnUse">
      <path
         id="path3412"
         d="M 0,0 741,0 741,683 0,683 0,0 z" />
    </clipPath>
    <clipPath
       id="clipPath3406"
       clipPathUnits="userSpaceOnUse">
      <path
         id="path3408"
         clip-rule="evenodd"
         d="m 43.63279,419.8834 190.63801,0 -81.928,252.146 c -4.216,12.974 -22.57,12.974 -26.784,0 l -81.92601,-252.146 0,0 z" />
    </clipPath>
    <clipPath
       id="clipPath3402"
       clipPathUnits="userSpaceOnUse">
      <path
         id="path3404"
         d="M 0,0 741,0 741,683 0,683 0,0 z" />
    </clipPath>
    <clipPath
       id="clipPath3398"
       clipPathUnits="userSpaceOnUse">
      <path
         id="path3400"
         clip-rule="evenodd"
         d="m 43.63279,419.8838 0,0 -41.338004,-127.222 c -3.769999,-11.604 0.36,-24.316 10.232004,-31.486 L 370.2968,1.241837 43.63279,419.8838 l 0,0 z" />
    </clipPath>
    <clipPath
       id="clipPath3394"
       clipPathUnits="userSpaceOnUse">
      <path
         id="path3396"
         d="M 0,0 741,0 741,683 0,683 0,0 z" />
    </clipPath>
    <clipPath
       id="clipPath3390"
       clipPathUnits="userSpaceOnUse">
      <path
         id="path3392"
         clip-rule="evenodd"
         d="m 370.2968,1.241237 -136.026,418.641963 -190.63801,0 326.66401,-418.641963 0,0 z" />
    </clipPath>
    <clipPath
       id="clipPath3386"
       clipPathUnits="userSpaceOnUse">
      <path
         id="path3388"
         d="M 0,0 741,0 741,683 0,683 0,0 z" />
    </clipPath>
    <clipPath
       id="clipPath3382"
       clipPathUnits="userSpaceOnUse">
      <path
         id="path3384"
         clip-rule="evenodd"
         d="m 370.2968,1.240437 0,0 136.026,418.643963 -272.052,0 136.026,-418.643963 0,0 z" />
    </clipPath>
    <clipPath
       id="clipPath3378"
       clipPathUnits="userSpaceOnUse">
      <path
         id="path3380"
         d="M 0,0 741,0 741,683 0,683 0,0 z" />
    </clipPath>
    <clipPath
       id="clipPath3374"
       clipPathUnits="userSpaceOnUse">
      <path
         id="path3376"
         clip-rule="evenodd"
         d="m 738.298,292.6624 -41.338,127.222 -81.926,252.146 c -4.214,12.972 -22.568,12.972 -26.784,0 l -81.928,-252.146 -272.05,0 -81.93,252.146 c -4.214,12.972 -22.568,12.972 -26.784,0 L 43.63199,419.8844 2.295986,292.6624 c -3.771999,-11.604 0.36,-24.316 10.230004,-31.488 L 370.296,1.240437 728.068,261.1744 c 9.87,7.172 14,19.884 10.23,31.488" />
    </clipPath>
    <clipPath
       id="clipPath3370"
       clipPathUnits="userSpaceOnUse">
      <path
         id="path3372"
         d="M 0,1 741,1 741,683 0,683 0,1 z" />
    </clipPath>
    <clipPath
       id="clipPath3364"
       clipPathUnits="userSpaceOnUse">
      <path
         id="path3366"
         clip-rule="evenodd"
         d="m -538.5,1221.5 3000,0 0,-1759.9999 -3000,0 0,1759.9999 0,0 z" />
    </clipPath>
    <clipPath
       id="clipPath3354"
       clipPathUnits="userSpaceOnUse">
      <path
         id="path3356"
         clip-rule="evenodd"
         d="m 1469.522,463.3662 -32.746,0 0.104,-243.732 132.472,0 0,30.14 -99.726,0 -0.104,213.592 0,0 z" />
    </clipPath>
  </defs>
  <g
     id="g3360"
     transform="matrix(0.6226615,0,0,-0.6226615,16.430506,440.13901)">
    <g
       id="g3362"
       clip-path="url(#clipPath3364)">
      <g
         id="g3368" />
      <g
         id="g3438">
        <g
           clip-path="url(#clipPath3370)"
           id="g3440">
          <g
             id="g3442" />
          <g
             id="g3444">
            <g
               clip-path="url(#clipPath3374)"
               id="g3446">
              <g
                 clip-path="url(#clipPath3378)"
                 id="g3448">
                <path
                   inkscape:connector-curvature="0"
                   d="m -6.58506,-6.259563 753.7632,0 0,695.519003 -753.7632,0 0,-695.519003 z"
                   style="fill:#fc6d26;fill-opacity:1;fill-rule:nonzero;stroke:none"
                   id="path3450" />
              </g>
            </g>
          </g>
          <g
             id="g3452">
            <g
               clip-path="url(#clipPath3382)"
               id="g3454">
              <g
                 clip-path="url(#clipPath3386)"
                 id="g3456">
                <path
                   inkscape:connector-curvature="0"
                   d="m 226.7708,-6.259563 287.052,0 0,433.644003 -287.052,0 0,-433.644003 z"
                   style="fill:#e24329;fill-opacity:1;fill-rule:nonzero;stroke:none"
                   id="path3458" />
              </g>
            </g>
          </g>
          <g
             id="g3460">
            <g
               clip-path="url(#clipPath3390)"
               id="g3462">
              <g
                 clip-path="url(#clipPath3394)"
                 id="g3464">
                <path
                   inkscape:connector-curvature="0"
                   d="m 36.13279,-6.258763 341.664,0 0,433.642003 -341.664,0 0,-433.642003 z"
                   style="fill:#fc6d26;fill-opacity:1;fill-rule:nonzero;stroke:none"
                   id="path3466" />
              </g>
            </g>
          </g>
          <g
             id="g3468">
            <g
               clip-path="url(#clipPath3398)"
               id="g3470">
              <g
                 clip-path="url(#clipPath3402)"
                 id="g3472">
                <path
                   inkscape:connector-curvature="0"
                   d="m -6.58539,-6.258163 384.3822,0 0,433.642003 -384.3822,0 0,-433.642003 z"
                   style="fill:#fca326;fill-opacity:1;fill-rule:nonzero;stroke:none"
                   id="path3474" />
              </g>
            </g>
          </g>
          <g
             id="g3476">
            <g
               clip-path="url(#clipPath3406)"
               id="g3478">
              <g
                 clip-path="url(#clipPath3410)"
                 id="g3480">
                <path
                   inkscape:connector-curvature="0"
                   d="m 36.13279,412.3834 205.638,0 0,276.8765 -205.638,0 0,-276.8765 z"
                   style="fill:#e24329;fill-opacity:1;fill-rule:nonzero;stroke:none"
                   id="path3482" />
              </g>
            </g>
          </g>
          <g
             id="g3484">
            <g
               clip-path="url(#clipPath3414)"
               id="g3486">
              <g
                 clip-path="url(#clipPath3418)"
                 id="g3488">
                <path
                   inkscape:connector-curvature="0"
                   d="m 362.7968,-6.258763 341.664,0 0,433.642003 -341.664,0 0,-433.642003 z"
                   style="fill:#fc6d26;fill-opacity:1;fill-rule:nonzero;stroke:none"
                   id="path3490" />
              </g>
            </g>
          </g>
          <g
             id="g3492">
            <g
               clip-path="url(#clipPath3422)"
               id="g3494">
              <g
                 clip-path="url(#clipPath3426)"
                 id="g3496">
                <path
                   inkscape:connector-curvature="0"
                   d="m 362.7966,-6.258163 384.3822,0 0,433.642003 -384.3822,0 0,-433.642003 z"
                   style="fill:#fca326;fill-opacity:1;fill-rule:nonzero;stroke:none"
                   id="path3498" />
              </g>
            </g>
          </g>
          <g
             id="g3500">
            <g
               clip-path="url(#clipPath3430)"
               id="g3502">
              <g
                 clip-path="url(#clipPath3434)"
                 id="g3504">
                <path
                   inkscape:connector-curvature="0"
                   d="m 498.8226,412.3834 205.638,0 0,276.8765 -205.638,0 0,-276.8765 z"
                   style="fill:#e24329;fill-opacity:1;fill-rule:nonzero;stroke:none"
                   id="path3506" />
              </g>
            </g>
          </g>
        </g>
      </g>
    </g>
  </g>
</svg>
